<?xml version="1.0" encoding="UTF-8"?>
<!DOCTYPE svg PUBLIC "-//W3C//DTD SVG 1.1//EN" "http://www.w3.org/Graphics/SVG/1.1/DTD/svg11.dtd">
<!-- Creator: CorelDRAW -->
<svg xmlns="http://www.w3.org/2000/svg" xml:space="preserve" width="7.6523mm" height="8.44mm" version="1.1" style="shape-rendering:geometricPrecision; text-rendering:geometricPrecision; image-rendering:optimizeQuality; fill-rule:evenodd; clip-rule:evenodd"
viewBox="0 0 8.23 9.08"
 xmlns:xlink="http://www.w3.org/1999/xlink"
 xmlns:xodm="http://www.corel.com/coreldraw/odm/2003">
 <defs>
  <style type="text/css">
   <![CDATA[
    .fil1 {fill:#CF8F40}
    .fil0 {fill:#E1A153}
   ]]>
  </style>
 </defs>
 <g id="Layer_x0020_1">
  <metadata id="CorelCorpID_0Corel-Layer"/>
  <g id="_1581334741040">
   <path class="fil0" d="M6.86 3.28l-4.12 -2.46 1.38 -0.82 4.12 2.46 0 3.26c0,0.56 -0.29,1.08 -0.77,1.36 -1.19,0.71 -3.35,2 -3.35,2l0 -1.39c0,0 1.16,-0.7 1.97,-1.18 0.48,-0.29 0.77,-0.8 0.77,-1.36l0 -1.86zm-5.49 1.66l0 2.51 1.37 0.82 0 -2.51 -1.37 -0.82zm2.75 1.37l0 -1.38 -4.12 -2.46 1.38 -0.82 4.12 2.46 0.01 1.38 -1.38 0.82z"/>
   <path class="fil1" d="M8.23 2.46l-1.37 0.82 0 1.86c0,0.56 -0.29,1.08 -0.77,1.36l-1.97 1.18 0 1.39 3.34 -1.99c0.48,-0.29 0.77,-0.8 0.77,-1.36l0 -3.26zm-2.74 1.64l-1.37 0.82 0 0 0 1.38 1.38 -0.82 -0.01 -1.38 -0 -0z"/>
  </g>
 </g>
</svg>
